<?xml version="1.0" standalone="no"?>
<!DOCTYPE svg PUBLIC "-//W3C//DTD SVG 20010904//EN"
 "http://www.w3.org/TR/2001/REC-SVG-20010904/DTD/svg10.dtd">
<svg version="1.0" xmlns="http://www.w3.org/2000/svg"
 width="585.000000pt" height="585.000000pt" viewBox="0 0 585.000000 585.000000"
 preserveAspectRatio="xMidYMid meet">
<metadata>
Created by potrace 1.14, written by Peter Selinger 2001-2017
</metadata>
<g transform="translate(0.000000,585.000000) scale(0.100000,-0.100000)"
fill="#000000" stroke="none">
<path d="M4593 5786 c-10 -17 -53 -39 -60 -32 -4 3 -12 1 -20 -5 -7 -6 -13 -9
-13 -5 0 8 -123 -39 -154 -59 -27 -18 -143 -48 -156 -40 -4 2 -18 -11 -31 -30
-13 -19 -27 -35 -31 -35 -15 0 -38 -107 -43 -200 -1 -24 -8 -46 -14 -48 -6 -2
-9 -8 -6 -13 9 -14 -41 -22 -97 -14 -71 9 -136 10 -178 2 -67 -11 -135 -20
-142 -19 -5 1 -8 -3 -8 -9 0 -5 -4 -7 -10 -4 -5 3 -10 1 -10 -5 0 -6 -4 -9 -9
-6 -5 3 -11 -1 -15 -9 -3 -8 -22 -23 -43 -33 -21 -9 -43 -21 -50 -27 -7 -5
-19 -16 -27 -22 -8 -7 -20 -13 -25 -13 -5 0 -12 -8 -16 -19 -3 -10 -29 -38
-57 -62 -28 -24 -56 -48 -62 -54 -64 -57 -77 -60 -235 -54 -61 2 -86 -17 -48
-38 12 -6 26 -8 31 -3 5 5 19 2 32 -6 13 -9 31 -17 41 -19 10 -2 19 -4 21 -5
1 -2 6 -3 11 -4 5 0 13 -4 17 -8 4 -5 18 -8 31 -8 13 0 22 -4 19 -9 -4 -5 -2
-11 4 -13 9 -3 11 -53 9 -224 0 -29 7 -69 16 -90 9 -22 18 -55 20 -74 6 -70
26 -99 95 -136 19 -10 50 -34 69 -52 20 -18 57 -39 86 -47 29 -9 74 -30 101
-47 71 -46 87 -54 109 -51 57 6 65 8 65 14 0 16 127 32 145 19 23 -18 52 -15
83 7 17 13 32 21 32 17 0 -3 6 -2 13 4 6 5 27 13 45 17 17 3 32 11 32 16 0 6
5 7 10 4 6 -3 10 -2 10 3 0 14 65 9 83 -7 10 -7 17 -10 17 -7 0 9 90 -86 91
-96 1 -4 3 -12 4 -18 1 -5 3 -17 4 -26 0 -9 6 -12 13 -8 8 5 9 2 5 -9 -3 -9
-3 -16 1 -15 12 4 92 -45 92 -56 0 -6 17 -30 38 -52 20 -23 44 -52 52 -64 15
-23 27 -36 118 -135 28 -31 53 -63 53 -71 1 -8 3 -18 4 -24 1 -5 3 -13 4 -17
1 -5 6 -1 11 7 8 13 10 13 10 -2 0 -9 3 -18 8 -20 4 -1 23 -50 42 -108 19 -58
40 -115 48 -127 7 -12 13 -23 12 -25 -1 -2 3 -16 9 -31 6 -16 11 -41 11 -57 0
-16 5 -32 10 -35 6 -3 10 -15 10 -26 0 -13 4 -18 12 -13 8 5 9 -3 5 -31 -3
-21 -2 -46 3 -56 7 -12 7 -20 0 -24 -6 -4 -8 -10 -6 -13 6 -10 19 -90 20 -124
1 -16 4 -28 7 -28 7 0 2 -107 -6 -120 -3 -5 -1 -11 4 -14 8 -6 7 -122 -5 -266
-3 -41 -6 -87 -7 -102 -1 -16 -5 -28 -9 -28 -4 0 -8 -6 -8 -14 0 -7 -6 -19
-13 -25 -10 -7 -13 -33 -12 -86 1 -42 -1 -78 -5 -80 -4 -3 -11 -26 -16 -52 -4
-27 -8 -50 -9 -53 -11 -42 -18 -82 -21 -110 -1 -19 -6 -63 -9 -97 l-7 -61 33
-18 c41 -20 49 -31 49 -65 0 -36 5 -38 51 -25 25 7 45 21 52 36 17 33 48 111
52 131 2 8 12 35 23 60 22 47 39 104 52 178 5 26 10 56 13 67 3 12 8 37 11 55
3 19 12 51 20 73 9 26 11 51 5 75 -4 20 -8 65 -9 101 -1 121 0 265 3 305 1 22
-5 74 -15 116 -9 41 -16 89 -14 105 2 16 -2 45 -9 64 -7 19 -18 71 -25 115 -6
44 -16 85 -20 90 -4 6 -42 99 -85 208 -72 188 -122 306 -135 317 -14 13 -50
90 -50 108 0 29 -48 110 -70 117 -10 3 -35 28 -54 55 -20 28 -40 50 -46 50 -5
0 -10 4 -10 9 0 5 -34 44 -75 87 -97 100 -185 216 -185 242 0 76 37 68 193
-38 40 -27 53 -31 71 -22 16 7 27 6 40 -3 21 -16 68 -9 79 11 4 8 17 14 28 14
11 0 30 5 41 11 14 8 23 8 31 0 13 -13 51 -15 43 -2 -4 5 0 12 6 14 9 4 10 6
1 6 -8 1 -2 24 16 69 26 65 29 67 65 70 21 2 36 -1 32 -6 -3 -5 1 -18 9 -28
13 -18 14 -18 20 8 4 14 3 34 -2 45 -5 10 -7 34 -4 53 5 26 11 35 26 35 30 0
46 25 28 43 -8 8 -12 21 -9 29 3 8 6 24 6 35 0 11 8 22 20 25 10 3 26 16 35
29 8 13 22 24 30 24 8 0 15 4 15 9 0 6 9 8 20 6 11 -2 22 1 25 6 4 5 11 6 17
3 6 -4 9 -1 6 7 -3 9 -20 14 -52 14 -64 0 -79 29 -39 76 7 9 10 18 7 21 -8 9
133 151 186 187 25 18 71 49 103 70 62 42 86 68 108 119 8 17 17 32 21 32 23
0 -17 97 -47 114 -11 6 -24 17 -30 24 -15 18 -133 24 -165 7 -104 -54 -148
-74 -154 -68 -3 3 -6 2 -6 -4 0 -6 -29 -19 -65 -28 -36 -10 -65 -22 -65 -26 0
-4 -30 -6 -67 -4 -38 2 -76 4 -86 5 -10 0 -16 4 -12 9 3 5 -6 18 -20 29 -15
12 -25 31 -27 51 -1 18 -8 37 -15 43 -8 6 -11 23 -7 44 3 21 1 34 -5 34 -6 0
-10 -6 -8 -12 1 -7 -3 -12 -10 -11 -6 2 -15 -6 -18 -17 -4 -11 -11 -18 -16
-15 -5 4 -9 1 -9 -4 0 -15 -20 -10 -44 11 -10 10 -24 14 -30 11 -7 -5 -7 -2 0
8 15 18 -4 38 -31 32 -61 -13 -83 4 -89 67 -3 24 -1 38 4 31 4 -7 10 -9 13 -5
3 5 -1 15 -9 21 -10 10 -15 10 -21 -1z"/>
<path d="M2668 4995 c-3 -3 -76 -7 -162 -9 -86 -3 -171 -9 -189 -15 -18 -5
-50 -12 -72 -15 -48 -6 -94 -20 -124 -36 -22 -11 -33 -14 -95 -25 -37 -7 -141
-51 -186 -78 -19 -12 -36 -21 -37 -19 -2 1 -4 2 -5 1 -2 0 -10 -2 -18 -4 -29
-6 -89 -35 -95 -45 -4 -6 -11 -8 -16 -5 -5 4 -9 0 -9 -8 0 -7 -6 -14 -12 -15
-36 -2 -76 -16 -108 -35 -19 -12 -39 -21 -43 -19 -38 12 -77 1 -77 -23 0 -10
-28 -35 -39 -35 -14 0 -131 -121 -131 -136 0 -27 35 -24 77 6 24 16 47 30 51
30 4 0 20 11 36 25 16 14 33 25 38 25 4 0 30 21 57 48 60 57 71 66 94 75 9 3
17 11 17 17 0 6 5 8 10 5 6 -3 10 -1 10 4 0 6 3 10 8 10 4 -1 10 0 15 1 4 1
13 3 20 4 6 1 11 6 10 12 -1 5 6 10 15 11 35 2 77 15 83 24 3 6 10 9 15 8 5
-1 11 0 14 1 3 1 32 4 64 6 33 2 63 9 68 16 4 7 8 10 8 6 0 -4 16 0 35 8 19 8
37 14 40 14 3 0 6 0 8 1 1 0 13 2 27 5 14 2 52 13 85 24 60 19 97 27 168 35
21 3 48 10 60 17 12 6 67 12 122 13 76 1 111 6 145 22 33 14 53 18 70 11 24
-8 24 -7 6 7 -11 8 -28 15 -39 15 -10 0 -15 5 -12 10 6 10 2 14 -7 5z"/>
<path d="M2248 4774 c-21 -9 -38 -20 -38 -26 0 -5 -4 -6 -10 -3 -5 3 -10 2
-10 -4 0 -5 -2 -16 -5 -23 -8 -20 67 -53 110 -50 79 6 141 68 101 101 -24 20
-107 23 -148 5z"/>
<path d="M1033 4324 c-35 -40 -28 -73 11 -52 23 12 49 45 52 65 4 23 -40 13
-63 -13z"/>
<path d="M2788 4277 c-37 -10 -114 -63 -123 -85 -9 -23 3 -48 28 -59 24 -11
129 17 151 40 92 95 70 136 -56 104z"/>
<path d="M811 4098 c-34 -34 -69 -74 -77 -91 -18 -33 -105 -150 -116 -155 -5
-2 -8 -9 -8 -16 0 -7 -15 -33 -34 -57 -18 -24 -40 -62 -49 -85 -8 -22 -29 -64
-46 -92 -17 -29 -28 -52 -25 -52 4 0 1 -7 -6 -15 -7 -8 -9 -15 -5 -15 4 0 3
-6 -2 -12 -6 -7 -16 -30 -23 -51 -7 -22 -18 -51 -26 -65 -7 -15 -19 -52 -26
-82 -6 -30 -14 -57 -17 -60 -9 -7 -29 -70 -36 -110 -3 -19 -12 -41 -20 -50 -7
-8 -18 -42 -25 -75 -6 -33 -18 -81 -26 -106 -8 -25 -17 -76 -19 -114 -3 -37
-8 -72 -11 -76 -2 -5 -6 -66 -8 -136 -4 -117 14 -302 39 -408 4 -16 8 -48 9
-70 3 -40 11 -79 26 -125 4 -14 16 -52 25 -85 10 -33 21 -64 26 -70 4 -5 7
-12 7 -15 -1 -3 9 -24 21 -47 11 -23 21 -48 21 -55 0 -15 100 -215 125 -251 8
-12 15 -27 15 -35 0 -12 6 -22 36 -55 16 -18 88 -151 85 -157 -1 -3 14 -29 34
-58 19 -29 35 -56 35 -61 0 -5 11 -21 25 -37 14 -16 50 -60 80 -99 30 -38 62
-78 71 -87 9 -9 14 -24 11 -32 -4 -11 -1 -13 11 -9 9 3 14 3 10 -2 -13 -14 64
-114 92 -121 19 -4 39 -17 36 -23 -3 -4 9 -16 25 -26 16 -11 32 -27 34 -37 7
-20 61 -62 92 -72 13 -4 23 -11 23 -16 0 -5 7 -7 15 -4 18 7 68 -23 60 -36 -3
-5 3 -11 14 -15 26 -8 62 -41 54 -49 -3 -3 -1 -6 5 -6 12 0 38 -19 74 -52 10
-10 18 -15 18 -12 0 3 12 -3 28 -14 15 -11 32 -21 37 -22 6 -1 20 -6 33 -11
13 -5 34 -12 48 -15 13 -3 26 -10 29 -14 3 -5 14 -6 24 -3 10 3 22 0 25 -6 4
-6 18 -11 31 -11 13 0 27 -4 30 -10 3 -5 15 -10 26 -10 10 0 19 -6 19 -12 0
-10 3 -9 9 1 6 9 11 10 15 2 4 -6 18 -11 31 -11 13 0 27 -5 31 -11 5 -8 9 -8
14 1 6 10 13 9 30 -3 12 -8 28 -13 35 -11 7 3 15 2 18 -3 3 -5 22 -8 41 -8 20
1 36 -1 36 -5 0 -4 10 -6 23 -5 12 1 27 0 32 -4 6 -3 19 -5 31 -6 11 0 28 -8
38 -17 9 -9 23 -15 31 -11 9 3 21 0 29 -6 7 -6 16 -7 20 -3 9 9 76 11 76 2 0
-3 13 -5 30 -4 17 1 30 -1 30 -4 0 -4 25 -7 55 -6 41 1 59 -4 71 -18 10 -10
25 -18 36 -18 10 0 18 -4 18 -9 0 -11 63 -27 120 -31 29 -2 123 33 114 43 -4
4 2 10 12 14 21 8 68 53 71 68 2 14 23 19 23 6 0 -6 7 -11 15 -11 8 0 14 -6
12 -12 -3 -19 48 -13 105 12 27 11 53 18 58 15 5 -3 11 -1 14 3 3 5 23 8 46 8
22 -1 40 1 40 5 0 3 6 6 13 7 52 6 84 16 94 29 7 9 19 13 27 10 9 -4 18 -2 21
3 3 5 13 8 23 8 51 -1 135 22 146 41 4 6 13 8 22 4 8 -3 14 -2 13 3 -3 21 2
30 19 31 9 1 31 5 47 9 17 3 44 7 62 8 18 0 30 2 28 5 -3 2 0 10 6 17 9 11 7
15 -5 20 -9 4 -20 4 -23 0 -3 -3 -12 -1 -20 5 -8 8 -13 8 -13 1 0 -6 -8 -9
-17 -7 -23 3 -55 -13 -48 -25 7 -11 -14 -25 -40 -26 -11 -1 -28 -4 -37 -9 -11
-4 -23 -1 -33 8 -17 17 -20 37 -6 37 6 0 9 12 8 27 -2 27 -5 28 -47 25 -29 -2
-51 -11 -65 -25 -26 -27 -38 -57 -24 -57 6 0 8 -7 5 -16 -3 -8 -2 -12 4 -9 6
3 10 -1 10 -10 0 -9 -4 -13 -10 -10 -5 3 -10 2 -10 -3 0 -11 -31 -23 -74 -28
-16 -2 -35 -9 -42 -14 -8 -7 -14 -8 -18 -1 -4 7 -15 7 -30 1 -13 -5 -27 -6
-30 -3 -3 4 -6 1 -6 -5 0 -6 -7 -9 -15 -6 -8 4 -15 1 -15 -6 0 -7 -8 -10 -20
-7 -10 3 -21 0 -22 -5 -3 -9 -82 -20 -137 -19 -31 1 -51 18 -51 45 -1 24 -24
59 -33 49 -4 -3 -7 -1 -7 6 0 17 -40 57 -73 74 -32 17 -139 14 -183 -5 -16 -6
-36 -12 -44 -12 -8 0 -18 -5 -22 -10 -4 -6 -24 -11 -46 -12 -21 0 -44 -4 -51
-8 -6 -4 -15 -5 -19 -2 -8 5 -29 10 -92 22 -14 2 -31 5 -37 6 -7 1 -13 4 -13
8 0 4 -13 5 -30 2 -16 -2 -30 0 -30 5 0 5 -16 8 -35 7 -19 -2 -35 1 -35 7 0 6
-5 7 -10 4 -6 -4 -25 -2 -43 4 -18 6 -51 12 -75 13 -26 1 -42 6 -42 14 0 7
-15 18 -34 25 -21 8 -32 17 -29 26 3 7 1 13 -3 13 -5 0 -19 22 -31 48 -20 45
-30 77 -53 169 -6 23 -15 45 -20 48 -6 3 -10 14 -10 25 0 10 -7 21 -16 24 -8
3 -12 10 -9 16 3 5 1 10 -5 10 -6 0 -15 12 -21 28 -6 15 -17 40 -25 56 -8 16
-11 32 -7 35 5 3 9 11 10 16 0 6 7 37 13 70 15 73 15 105 0 145 -1 3 -2 8 -1
13 0 4 -3 7 -9 7 -5 0 -38 29 -72 65 -42 43 -73 66 -93 70 -16 2 -41 7 -55 10
-14 3 -39 8 -57 11 -18 3 -37 12 -44 20 -6 8 -18 14 -26 14 -8 0 -28 8 -46 17
-18 9 -34 18 -37 18 -3 1 -25 11 -50 22 -52 24 -68 19 -101 -29 -43 -62 -129
-137 -162 -143 -52 -8 -112 15 -122 47 -4 10 -10 18 -14 18 -4 0 -16 19 -26
43 -10 23 -34 63 -53 90 -19 26 -30 47 -25 47 4 0 2 4 -6 9 -8 5 -16 18 -17
28 -4 29 -11 56 -28 94 -8 20 -18 52 -21 70 -3 19 -8 42 -11 51 -14 45 -17 70
-19 153 -1 50 2 101 7 115 5 13 11 72 12 131 2 59 7 113 12 121 4 7 9 26 10
43 1 38 13 75 23 75 4 0 16 18 26 41 18 40 18 41 -1 77 -10 20 -27 46 -36 56
-10 11 -19 29 -19 40 -1 12 -3 30 -5 41 -2 11 -6 54 -8 95 -3 41 -8 84 -10 95
-7 29 -34 156 -40 185 -3 14 -11 48 -18 75 -7 28 -12 59 -11 70 7 61 12 83 22
108 6 15 9 27 6 27 -2 0 2 18 10 40 8 22 12 40 9 40 -2 0 7 21 20 48 14 26 27
60 30 76 3 15 12 39 21 52 8 13 13 24 10 24 -3 0 5 17 18 38 20 31 49 95 53
112 0 3 3 12 7 20 3 8 17 66 31 128 22 96 40 144 86 233 5 10 2 19 -10 26 -14
10 -27 2 -79 -49z"/>
<path d="M4002 4096 c-32 -21 -37 -32 -46 -93 -6 -46 26 -93 62 -93 50 0 89
20 115 58 43 63 40 95 -12 121 -57 30 -82 31 -119 7z"/>
<path d="M3850 4070 c-15 -9 -6 -52 13 -64 34 -22 75 38 43 63 -13 10 -41 11
-56 1z"/>
<path d="M4350 4050 c0 -5 7 -10 15 -10 8 0 15 5 15 10 0 6 -7 10 -15 10 -8 0
-15 -4 -15 -10z"/>
<path d="M3099 3966 c-2 -2 -27 -6 -56 -10 -54 -6 -103 -24 -103 -37 0 -4 -15
-22 -34 -40 -42 -39 -54 -78 -32 -95 13 -9 31 -8 79 2 34 7 63 11 65 9 16 -16
122 92 122 125 0 17 -33 54 -41 46z"/>
<path d="M4859 1565 c-1 -5 -1 -13 0 -17 0 -5 -4 -8 -10 -8 -5 0 -15 -13 -20
-30 -6 -16 -15 -30 -20 -30 -5 0 -9 -10 -9 -22 0 -12 -10 -32 -22 -43 -13 -11
-24 -27 -26 -35 -1 -8 -11 -35 -21 -60 -11 -25 -22 -60 -24 -78 -3 -19 -13
-39 -23 -46 -11 -9 -13 -15 -6 -20 6 -4 8 -14 5 -23 -5 -13 -2 -15 11 -10 10
4 22 7 27 7 6 0 8 4 5 8 -3 5 8 23 24 42 16 19 27 37 25 41 -3 4 5 9 17 12 12
4 19 9 15 13 -4 4 -2 13 4 21 6 7 8 13 4 13 -4 0 5 14 19 31 14 17 26 37 26
45 0 8 5 14 11 14 5 0 7 5 4 10 -3 6 -3 10 2 10 8 0 33 62 35 88 1 6 5 12 9
12 4 0 5 10 3 23 -3 12 -6 27 -6 33 -2 14 -58 13 -59 -1z m-141 -392 c-8 -10
-14 -10 -24 -2 -18 15 -18 15 11 15 19 0 22 -3 13 -13z"/>
<path d="M4534 1047 c-8 -21 2 -35 16 -21 5 5 6 15 0 24 -8 12 -10 12 -16 -3z"/>
<path d="M4430 931 c-8 -6 -17 -8 -20 -6 -3 2 -15 -9 -25 -25 -11 -16 -30 -35
-42 -41 -13 -7 -23 -16 -23 -21 0 -4 -7 -8 -15 -8 -17 0 -65 -46 -65 -64 0 -6
-7 -21 -16 -32 -14 -17 -15 -17 -10 -1 10 30 -13 8 -32 -31 -11 -22 -25 -36
-37 -37 -24 -2 -66 -35 -59 -46 8 -13 57 1 71 20 18 27 75 51 106 45 15 -2 27
0 27 6 0 5 6 10 14 10 8 0 16 4 18 9 2 5 10 11 18 13 21 4 79 69 86 96 3 12
10 22 15 22 5 0 9 9 9 19 0 11 4 22 9 25 5 4 8 14 6 24 -2 9 -4 20 -4 25 -1 9
-13 9 -31 -2z"/>
<path d="M3955 544 c-11 -8 -26 -12 -33 -9 -17 6 -102 -34 -102 -48 0 -5 -9
-7 -19 -4 -11 3 -22 -1 -25 -9 -3 -8 -12 -11 -21 -8 -10 4 -15 2 -13 -7 4 -20
30 -38 53 -39 27 0 73 32 68 47 -3 9 4 10 26 3 18 -5 33 -5 36 1 4 5 15 9 26
9 11 0 20 7 20 18 1 9 3 27 4 40 1 12 2 22 1 22 0 0 -10 -7 -21 -16z"/>
</g>
</svg>
